<?xml version="1.0" ?>

<!DOCTYPE svg  PUBLIC '-//W3C//DTD SVG 1.1//EN'  'http://www.w3.org/Graphics/SVG/1.1/DTD/svg11.dtd'>

<!-- Uploaded to: SVG Repo, www.svgrepo.com, Generator: SVG Repo Mixer Tools -->
<svg fill="#0d018b" width="800px" height="800px" viewBox="0 0 512 512" enable-background="new 0 0 512 512" id="Brush_x5F_teeth" version="1.1" xml:space="preserve" xmlns="http://www.w3.org/2000/svg" xmlns:xlink="http://www.w3.org/1999/xlink">

<g>

<rect height="9.5" width="9.5" x="406.473" y="191.535"/>

<rect height="9.5" width="9.5" x="406.473" y="164.035"/>

<rect height="9.5" width="9.5" x="406.473" y="383.559"/>

<rect height="9.5" width="9.5" x="406.473" y="356.059"/>

<path d="M332.961,302.414c0-11.334-8.283-20.764-19.111-22.57c2.721-3.83,4.207-8.393,4.207-13.195   c0-12.621-10.268-22.889-22.889-22.889h-24.83v10h24.83c7.107,0,12.889,5.781,12.889,12.889c0,3.447-1.34,6.68-3.779,9.111   c-2.428,2.428-5.664,3.766-9.109,3.766v10h14.904c7.105,0,12.889,5.783,12.889,12.889c0,3.432-1.342,6.664-3.779,9.1   c-2.436,2.438-5.672,3.779-9.109,3.779h-10.779v10h10.779c7.105,0,12.889,5.777,12.889,12.877c0,3.439-1.342,6.674-3.785,9.117   c-2.424,2.432-5.658,3.771-9.104,3.771h-14.904v10c7.107,0,12.889,5.777,12.889,12.879c0,3.445-1.34,6.68-3.779,9.109   c-2.436,2.436-5.67,3.777-9.109,3.777h-49.67c-7.101,0-12.878-5.781-12.878-12.887c0-7.102,5.777-12.879,12.878-12.879h32.901v-10   h-32.901c-7.101,0-12.878-5.781-12.878-12.889c0-3.268,1.215-6.313,3.318-8.633c3.801,1.92,8.09,3.008,12.63,3.008   c5.095,0,9.499-2.965,11.612-7.252h27.445v-10H261.52v-25.768h16.965v-10H261.52V269.07c0-16.383-13.329-29.711-29.711-29.711   h-42.612c-21.183,0-41.63,8.88-56.099,24.363c-14.894,15.938-35.485,25.078-56.494,25.078H35.887v10h40.716   c23.768,0,47.022-10.297,63.801-28.25c12.585-13.467,30.369-21.191,48.792-21.191h42.612c10.868,0,19.711,8.842,19.711,19.711   v50.523c0,1.627-1.324,2.951-2.951,2.951c-9.992,0-18.121-8.129-18.121-18.121v-37.555h-10v37.555   c0,7.355,2.842,14.057,7.48,19.072c-3.378,4.031-5.308,9.178-5.308,14.674c0,7.234,3.375,13.689,8.629,17.887   c-5.254,4.197-8.629,10.65-8.629,17.881c0,9.771,6.155,18.129,14.79,21.406v5.795h-81.201c-7.359,0-14.356-2.326-20.233-6.725   c-11.045-8.277-23.826-12.652-36.962-12.652H35.887v10h63.126c10.956,0,21.664,3.684,30.967,10.656   c7.621,5.705,16.691,8.721,26.229,8.721h81.201V490.4h30.93v-93.576h26.828c6.111,0,11.857-2.381,16.176-6.701   c4.328-4.314,6.713-10.063,6.713-16.186c0-4.918-1.564-9.475-4.217-13.209c4.686-0.773,9.004-2.955,12.412-6.377   c4.326-4.324,6.709-10.072,6.709-16.182c0-7.23-3.377-13.682-8.633-17.877c0.666-0.533,1.313-1.096,1.924-1.707   C330.578,314.262,332.961,308.518,332.961,302.414z M258.34,480.4h-10.93v-12h10.93V480.4z M258.34,458.4h-10.93v-61.576h10.93   V458.4z"/>

<path d="M215.031,266.525h-10c0,35.756-29.09,64.846-64.846,64.846v10C181.456,341.371,215.031,307.795,215.031,266.525z"/>

<path d="M152.723,205.237c0,7.693,6.259,13.952,13.952,13.952s13.952-6.259,13.952-13.952c0-7.693-6.259-13.952-13.952-13.952   S152.723,197.544,152.723,205.237z M166.675,201.285c2.18,0,3.952,1.773,3.952,3.952c0,2.179-1.772,3.952-3.952,3.952   s-3.952-1.773-3.952-3.952C162.723,203.058,164.496,201.285,166.675,201.285z"/>

<path d="M183.477,105.129c8.015,0,14.535-6.52,14.535-14.535c0-8.014-6.521-14.534-14.535-14.534s-14.534,6.52-14.534,14.534   C168.943,98.609,175.462,105.129,183.477,105.129z M183.477,86.06c2.501,0,4.535,2.034,4.535,4.534c0,2.5-2.034,4.535-4.535,4.535   c-2.5,0-4.534-2.034-4.534-4.535C178.943,88.094,180.977,86.06,183.477,86.06z"/>

<path d="M140.449,178.535c10.476,0,18.998-8.522,18.998-18.998c0-10.475-8.522-18.998-18.998-18.998s-18.998,8.522-18.998,18.998   C121.451,170.013,129.973,178.535,140.449,178.535z M140.449,150.54c4.962,0,8.998,4.036,8.998,8.998s-4.036,8.998-8.998,8.998   s-8.998-4.037-8.998-8.998S135.487,150.54,140.449,150.54z"/>

<polygon points="237.41,230.22 247.41,230.22 247.41,172.053 231.68,136.053 231.68,60.267 221.68,60.267 221.68,138.142    237.41,174.142  "/>

<path d="M323.396,118.061l-0.004-72.703c0-10.94-8.9-19.841-19.842-19.841c-5.76,0-10.939,2.483-14.566,6.417H252.61v-6.417h-30.93   v23.75h10v-13.75h10.93v102.456l15.73,36.33v55.917h10v-57.989l-15.73-36.33v-10.134h38.789   c7.709,11.013,20.48,18.234,34.914,18.234h13.066v-10C330.592,134,323.422,126.851,323.396,118.061z M252.61,41.934h31.417   c-0.195,1.115-0.316,2.254-0.316,3.424v7.534H252.61V41.934z M252.61,62.892h31.101V73.85H252.61V62.892z M252.61,83.85h31.101   v10.958H252.61V83.85z M252.61,115.767v-10.958h31.25c0.303,3.815,1.105,7.491,2.352,10.958H252.61z M293.711,101.398v-56.04   c0-5.426,4.414-9.841,9.84-9.841s9.842,4.415,9.842,9.841v71.635l0.004,1.099c0.016,5.53,1.771,10.66,4.746,14.872   C304.107,129.33,293.711,116.555,293.711,101.398z"/>

<path d="M431.85,311.1l-0.004-72.703c0-10.94-8.9-19.841-19.84-19.841c-10.941,0-19.842,8.9-19.842,19.841v56.041   c0,23.49,19.111,42.602,42.602,42.602h13.068v-10C439.045,327.039,431.875,319.891,431.85,311.1z M402.164,294.438v-56.041   c0-5.426,4.416-9.841,9.842-9.841s9.84,4.415,9.84,9.841v71.635l0.004,1.1c0.016,5.529,1.771,10.66,4.748,14.871   C412.561,322.367,402.164,309.594,402.164,294.438z"/>

<path d="M465.631,123.728l-0.027-0.95l-22.896-53.516h-2.303V48.388h-10.58V21.6h-37.15v26.788h-10.58v20.874h-2.303   l-22.896,53.516L346.332,490.4h129.781L465.631,123.728z M402.674,31.6h17.15v16.788h-17.15V31.6z M392.094,58.388h0.58h37.15h0.58   v10.874h-38.311V58.388z M386.389,79.262h49.721l16.945,39.609h-83.613L386.389,79.262z M357.354,454.984h80.865v-10h-80.578   l9.082-316.114h89.051l9.037,316.114h-16.414v10h16.701l0.727,25.416H356.623L357.354,454.984z"/>

</g>

</svg>
