<?xml version="1.0" encoding="iso-8859-1"?>
<!-- Uploaded to: SVG Repo, www.svgrepo.com, Generator: SVG Repo Mixer Tools -->
<svg fill="#0d018b" height="800px" width="800px" version="1.1" id="Layer_1" xmlns="http://www.w3.org/2000/svg" xmlns:xlink="http://www.w3.org/1999/xlink"
	 viewBox="0 0 512.001 512.001" xml:space="preserve">
<g>
	<g>
		<path d="M200.985,413.395c-4.082-4.08-10.697-4.08-14.778,0l-0.097,0.097c-4.08,4.081-4.08,10.698,0,14.778
			c2.041,2.041,4.714,3.06,7.388,3.06c2.674,0,5.348-1.02,7.39-3.06l0.097-0.097C205.065,424.092,205.065,417.475,200.985,413.395z"
			/>
	</g>
</g>
<g>
	<g>
		<path d="M347.232,429.604l-2.663-2.303c8.292-5.785,13.727-15.393,13.727-26.249c0-10.861-5.441-20.474-13.739-26.258l2.677-2.314
			c13.341-11.537,14.808-31.774,3.273-45.115c-5.589-6.463-13.359-10.362-21.88-10.98c-8.523-0.614-16.774,2.119-23.234,7.707
			l-24.277,20.994c-20.528-32.868-58.544-54.988-101.964-54.988s-81.436,22.119-101.964,54.988l-24.277-20.994
			c-13.34-11.536-33.579-10.068-45.116,3.272c-11.536,13.34-10.068,33.579,3.274,45.115l2.677,2.314
			C5.441,380.578,0,390.192,0,401.053c0,10.855,5.435,20.463,13.727,26.249l-2.662,2.303C-2.277,441.141-3.745,461.38,7.792,474.72
			c6.081,7.031,14.903,11.063,24.203,11.063c7.674,0,15.1-2.767,20.913-7.793l24.271-20.988C97.705,489.876,135.725,512,179.148,512
			s81.443-22.124,101.97-54.997l24.271,20.988c5.811,5.025,13.238,7.793,20.913,7.793c9.301,0,18.123-4.032,24.203-11.064
			C362.04,461.379,360.573,441.14,347.232,429.604z M67.628,437.634l-28.389,24.55c-2.017,1.743-4.589,2.702-7.244,2.702
			c-3.228,0-6.288-1.398-8.396-3.836c-3.999-4.624-3.49-11.64,1.135-15.639l17.252-14.919c3.301-2.855,4.481-7.461,2.957-11.55
			c-1.523-4.091-5.427-6.802-9.792-6.802h-3.165c-6.115,0-11.087-4.974-11.087-11.087c0-6.114,4.974-11.087,11.087-11.087h3.19
			c4.365,0,8.269-2.713,9.792-6.802c1.523-4.09,0.344-8.696-2.957-11.55l-17.276-14.94c-4.625-3.999-5.134-11.015-1.136-15.639
			c3.999-4.624,11.016-5.133,15.64-1.134l28.393,24.553c-4.277,11.464-6.611,23.779-6.611,36.596
			C61.021,413.862,63.353,426.173,67.628,437.634z M86.248,427.648c-2.813-8.41-4.33-17.343-4.33-26.598
			c0-49.656,43.617-90.052,97.23-90.052c7.395,0,14.597,0.772,21.523,2.228L86.248,427.648z M179.147,491.102
			c-12.349,0-24.164-2.148-35.042-6.053l33.611-33.611c4.08-4.08,4.08-10.697,0-14.777c-4.081-4.08-10.696-4.08-14.778,0
			l-38.68,38.68c-11.451-7.281-21.143-16.767-28.353-27.797l126.929-126.929c12.467,5.832,23.398,14.077,32.081,24.069
			l-44.808,44.808c-4.08,4.08-4.08,10.697,0,14.778c2.041,2.041,4.715,3.06,7.388,3.06s5.348-1.02,7.388-3.06l42.004-42.004
			c6.08,11.752,9.491,24.906,9.491,38.784C276.379,450.705,232.761,491.102,179.147,491.102z M316.311,430.492l17.252,14.919
			c4.625,3.999,5.133,11.014,1.134,15.639c-2.108,2.438-5.167,3.835-8.395,3.835c-2.656,0-5.229-0.959-7.243-2.701l-28.389-24.549
			c4.275-11.461,6.607-23.771,6.607-36.585c0-12.819-2.334-25.133-6.612-36.597l28.393-24.553c2.241-1.938,5.109-2.887,8.054-2.672
			c2.954,0.214,5.647,1.565,7.584,3.805c3.999,4.625,3.491,11.64-1.134,15.639l-17.276,14.94c-3.301,2.855-4.481,7.461-2.957,11.55
			c1.522,4.091,5.427,6.802,9.792,6.802h3.19c6.114,0,11.086,4.974,11.086,11.087c0,6.114-4.974,11.087-11.086,11.087h-3.165
			c-4.365,0-8.269,2.713-9.792,6.802C311.83,423.032,313.01,427.637,316.311,430.492z"/>
	</g>
</g>
<g>
	<g>
		<path d="M334.905,187.077h-0.137c-5.77,0-10.449,4.678-10.449,10.449s4.679,10.449,10.449,10.449h0.137
			c5.77,0,10.449-4.678,10.449-10.449S340.675,187.077,334.905,187.077z"/>
	</g>
</g>
<g>
	<g>
		<path d="M504.206,219.185c-5.589-6.463-13.359-10.362-21.879-10.979l-31.932-2.317c2.173-9.408,3.129-19.235,2.783-29.304
			c-1.05-30.458-13.864-59.467-36.079-81.683c-22.217-22.216-51.225-35.029-81.684-36.079c-10.064-0.349-19.893,0.608-29.304,2.783
			l-2.317-31.932c-0.617-8.521-4.517-16.291-10.98-21.879c-6.462-5.588-14.696-8.329-23.235-7.707
			c-17.59,1.276-30.862,16.624-29.586,34.215l0.254,3.509c-1.851-0.329-3.745-0.497-5.664-0.497c-8.544,0-16.576,3.328-22.618,9.369
			c-7.676,7.676-10.627,18.313-8.854,28.267l-3.511-0.255c-17.603-1.29-32.937,11.997-34.215,29.587
			c-0.672,9.272,2.715,18.361,9.29,24.937c5.427,5.427,12.636,8.722,20.298,9.277l32.003,2.322
			c-8.73,37.759,2.51,80.288,33.215,110.993c22.217,22.217,51.224,35.03,81.683,36.08c1.354,0.047,2.703,0.07,4.048,0.07
			c8.66,0,17.122-0.972,25.269-2.855l2.315,31.924c0.556,7.661,3.85,14.868,9.278,20.296c6.028,6.027,14.165,9.375,22.618,9.375
			c0.77,0,1.545-0.028,2.32-0.085c17.59-1.276,30.862-16.625,29.586-34.215l-0.253-3.491c1.846,0.327,3.734,0.494,5.649,0.494
			c8.543,0,16.575-3.327,22.617-9.367c7.68-7.68,10.63-18.325,8.851-28.283l3.53,0.256c17.601,1.28,32.937-11.996,34.215-29.587
			C512.533,233.899,509.795,225.647,504.206,219.185z M331.439,79.69c25.134-0.001,50.974,10.081,70.882,29.991
			c5.188,5.188,9.733,10.826,13.643,16.794H254.148c3.958-7.936,9.199-15.325,15.743-21.87
			C286.564,87.931,308.712,79.69,331.439,79.69z M196.483,117.653c-2.656-0.193-5.154-1.333-7.031-3.212
			c-2.282-2.282-3.458-5.435-3.225-8.648c0.443-6.097,5.731-10.696,11.861-10.257l22.748,1.65c4.338,0.311,8.444-2.108,10.259-6.076
			c1.814-3.97,0.972-8.649-2.115-11.734l-2.238-2.237c-4.323-4.323-4.324-11.357,0-15.68c2.094-2.094,4.879-3.247,7.84-3.247
			s5.746,1.154,7.84,3.247l2.255,2.255c3.087,3.086,7.766,3.93,11.733,2.114c3.97-1.815,6.393-5.906,6.076-10.258l-1.652-22.78
			c-0.442-6.098,4.158-11.419,10.256-11.861c2.951-0.214,5.813,0.734,8.054,2.672c2.24,1.937,3.592,4.631,3.807,7.584l2.711,37.377
			c-11.265,5.167-21.586,12.302-30.549,21.264c-9.06,9.061-16.116,19.415-21.198,30.541L196.483,117.653z M377.169,261.511
			c-0.13,0.046-0.261,0.087-0.388,0.138c-10.648,3.91-22.196,5.771-34.188,5.355c-25.149-0.867-49.167-11.511-67.626-29.971
			c-8.73-8.73-15.546-18.607-20.476-29.059h47.51c5.77,0,10.449-4.678,10.449-10.449s-4.679-10.449-10.449-10.449h-54.693
			c-2.95-13.246-3.101-26.808-0.399-39.705h179.535c3.482,9.591,5.492,19.664,5.846,29.934c0.114,3.294,0.045,6.553-0.177,9.771
			h-63.406c-5.77,0-10.449,4.678-10.449,10.449s4.679,10.449,10.449,10.449h59.443c-0.377,1.184-0.789,2.353-1.216,3.516
			c-0.044,0.108-0.077,0.22-0.117,0.33c-4.208,11.319-10.745,21.612-19.423,30.289C398.732,250.773,388.463,257.302,377.169,261.511
			z M491.072,240.908c-0.443,6.096-5.749,10.692-11.861,10.257l-22.781-1.652c-4.347-0.322-8.443,2.108-10.258,6.075
			c-1.815,3.969-0.973,8.648,2.112,11.733l2.256,2.257c2.094,2.094,3.248,4.878,3.248,7.84c0,2.961-1.154,5.746-3.248,7.839
			c-2.094,2.094-4.878,3.248-7.839,3.248c-2.962,0-5.746-1.154-7.841-3.248l-2.239-2.238c-3.086-3.086-7.764-3.929-11.733-2.113
			c-3.969,1.815-6.392,5.905-6.075,10.258l1.65,22.748c0.442,6.097-4.159,11.419-10.256,11.861c-3.208,0.23-6.367-0.943-8.648-3.224
			c-1.879-1.879-3.02-4.377-3.212-7.032l-2.71-37.369c11.261-5.166,21.576-12.302,30.537-21.263
			c8.964-8.964,16.1-19.285,21.266-30.549l37.377,2.711c2.953,0.214,5.647,1.566,7.584,3.806
			C490.337,235.094,491.286,237.955,491.072,240.908z"/>
	</g>
</g>
</svg>
